<?xml version="1.0" standalone="no"?><svg xmlns="http://www.w3.org/2000/svg" viewBox="0 0 1440 320"><path fill="#d8deff" fill-opacity="1" d="M0,288L24,240C48,192,96,96,144,69.3C192,43,240,85,288,106.7C336,128,384,128,432,138.7C480,149,528,171,576,160C624,149,672,107,720,101.3C768,96,816,128,864,170.7C912,213,960,267,1008,266.7C1056,267,1104,213,1152,165.3C1200,117,1248,75,1296,69.3C1344,64,1392,96,1416,112L1440,128L1440,0L1416,0C1392,0,1344,0,1296,0C1248,0,1200,0,1152,0C1104,0,1056,0,1008,0C960,0,912,0,864,0C816,0,768,0,720,0C672,0,624,0,576,0C528,0,480,0,432,0C384,0,336,0,288,0C240,0,192,0,144,0C96,0,48,0,24,0L0,0Z"></path></svg>